PathFileType	4	(X/Y/Z)	s05c0301.trc
DataRate	CameraRate	NumFrames	NumMarkers	Units	OrigDataRate	OrigDataStartFrame	OrigNumFrames
200	200	4	50	mm	200	1750	2000
Frame#	Time	racr			lacr			c7			jug			rlel			rdr			llel			ldr			s2			lic			ric			lasi			rasi			rpsi			lpsi			rgt			lgt			rth1			rth2			rth3			rth4			rlfc			rmfc			rsh1			rsh2			rsh3			rsh4			rlmal			rmmal			rcal			rtoe			rmt5			lth1			lth2			lth4			lth3			llfc			lmfc			lsh1			lsh2			lsh3			lsh4			llmal			lmmal			lcal			ltoe			lmt5			SBIKE			LBIKE			RBIKE			
		X1	Y1	Z1	X2	Y2	Z2	X3	Y3	Z3	X4	Y4	Z4	X5	Y5	Z5	X6	Y6	Z6	X7	Y7	Z7	X8	Y8	Z8	X9	Y9	Z9	X10	Y10	Z10	X11	Y11	Z11	X12	Y12	Z12	X13	Y13	Z13	X14	Y14	Z14	X15	Y15	Z15	X16	Y16	Z16	X17	Y17	Z17	X18	Y18	Z18	X19	Y19	Z19	X20	Y20	Z20	X21	Y21	Z21	X22	Y22	Z22	X23	Y23	Z23	X24	Y24	Z24	X25	Y25	Z25	X26	Y26	Z26	X27	Y27	Z27	X28	Y28	Z28	X29	Y29	Z29	X30	Y30	Z30	X31	Y31	Z31	X32	Y32	Z32	X33	Y33	Z33	X34	Y34	Z34	X35	Y35	Z35	X36	Y36	Z36	X37	Y37	Z37	X38	Y38	Z38	X39	Y39	Z39	X40	Y40	Z40	X41	Y41	Z41	X42	Y42	Z42	X43	Y43	Z43	X44	Y44	Z44	X45	Y45	Z45	X46	Y46	Z46	X47	Y47	Z47	X48	Y48	Z48	X49	Y49	Z49	X50	Y50	Z50	
1750	8.7500	727.857732	1293.824905	-154.175516	743.928587	1257.567100	-423.142009	728.072239	1350.292690	-303.842249	657.892318	1206.386539	-278.255365	564.385597	1101.013958	-2.229035	685.316789	917.978193	-89.645614	544.174779	1096.803693	-601.661772	678.840346	921.066924	-486.975660	129.890398	1235.888719	-327.939400	294.946309	1192.051339	-449.725114	262.769284	1269.189992	-178.133768	322.638240	1137.259684	-395.255483	289.850143	1194.586466	-186.926424	167.506212	1287.581783	-295.451145	182.236674	1267.932034	-378.892323	208.304745	1153.764919	-129.446315	200.298772	1103.489634	-462.111251	303.958434	1084.652243	-105.362555	388.082234	1055.302071	-94.344405	443.155235	987.268298	-84.447845	408.528389	1081.630026	-110.977976	544.719262	882.333282	-97.435479	542.724224	870.408295	-209.914793	449.653944	833.296666	-77.476390	394.820636	764.716225	-90.506531	316.826470	730.623756	-98.698526	416.670211	740.890238	-111.507474	216.070579	640.953815	-111.292901	249.328269	651.990664	-188.385010	153.150687	678.838626	-157.706909	284.362729	414.394646	-163.726381	215.725633	487.727337	-95.863442	231.850202	971.095806	-477.666547	268.780073	894.166846	-470.738703	303.213499	899.748858	-456.244539	259.792479	803.890804	-465.623275	274.235944	664.709747	-428.914113	248.986966	656.119581	-325.960573	214.495026	553.707438	-461.631857	210.043738	467.420379	-450.392161	162.496372	392.359865	-451.146728	239.183461	460.533675	-425.908604	136.627079	276.940220	-445.088635	160.861096	298.224464	-375.078243	70.089389	260.601026	-405.900832	337.308537	134.990123	-396.044614	230.435222	148.696434	-464.919143	-219.674891	911.126665	-275.638295	-53.373275	78.966017	-475.071302	-53.388182	79.173481	-77.465447	
1751	8.7550	726.924653	1293.271035	-151.896907	744.105214	1258.120885	-421.031514	727.899985	1350.073394	-301.319479	657.095630	1206.387248	-276.801753	562.978892	1099.977951	-2.169722	685.164398	918.420751	-89.444671	544.582441	1097.808542	-600.287640	679.162957	921.067418	-486.871951	130.042424	1236.261105	-330.942980	296.777567	1191.937823	-450.914366	260.829985	1270.874088	-179.922515	323.801438	1137.366555	-396.027602	288.050771	1195.815616	-188.734030	167.083732	1288.053721	-298.626444	183.112101	1268.073569	-381.779192	206.675396	1155.531852	-131.396291	201.998021	1103.558171	-463.729492	303.087935	1087.753361	-107.129252	387.605283	1059.708096	-95.041044	443.617246	992.450639	-84.912617	407.808155	1086.501531	-111.485743	547.647286	890.042804	-96.939752	546.475965	878.231075	-209.824212	454.017850	839.255835	-77.564841	400.552090	769.643742	-90.420778	323.309390	733.941763	-98.849894	422.891536	746.268429	-111.442212	223.981629	642.774355	-111.559723	256.905323	653.973208	-188.316125	160.473234	679.313389	-157.856830	295.876874	417.114867	-163.888130	226.090864	489.561486	-95.914105	232.824162	971.805933	-478.852933	268.473786	894.337356	-471.999226	303.070421	899.361435	-457.919034	257.914378	804.230558	-467.061351	270.679314	664.469834	-430.540380	245.326002	656.071255	-327.380530	210.600733	554.022026	-463.627155	205.083482	467.789617	-452.439682	156.858505	393.262229	-453.972430	233.938835	460.637383	-427.736956	130.239661	277.920191	-447.759457	153.987568	298.595181	-376.183048	62.911166	263.230693	-409.876562	326.806960	131.626012	-393.931959	221.720523	147.259075	-465.137696	-219.733463	911.114738	-275.571463	-53.406138	78.968702	-475.066447	-53.417815	79.192494	-77.466607	
1752	8.7600	726.151675	1292.479453	-149.720011	744.178468	1258.729444	-419.071411	727.768357	1349.853670	-298.919736	656.129024	1206.259592	-275.796292	565.951036	1099.134021	-1.918699	685.051930	918.774679	-89.367214	544.638984	1098.902512	-598.961971	679.521726	921.088930	-486.746749	130.186917	1237.058727	-333.862517	298.383841	1192.262367	-452.127291	258.830035	1272.154115	-181.899390	324.643984	1137.769650	-396.645695	285.827388	1197.339192	-190.748710	166.962633	1288.711941	-302.096594	183.896455	1268.752538	-384.531628	204.705407	1157.301848	-133.551896	203.742637	1104.007992	-465.500262	301.675308	1090.615451	-108.729883	386.425356	1063.776049	-96.008077	442.891214	997.098310	-85.298876	406.466837	1090.804662	-112.220824	549.571782	896.903928	-96.061294	549.779748	885.229945	-208.887516	457.874347	844.685056	-77.828559	405.961105	773.589818	-90.855899	329.395570	736.707107	-98.931518	428.663295	750.969386	-111.587324	231.505017	643.716632	-111.794423	263.992511	655.414553	-188.148952	167.125107	678.932038	-157.807941	307.736552	419.579614	-164.385181	237.206792	490.604390	-95.457113	234.273932	972.904854	-479.749191	268.817288	894.997293	-472.882352	303.527252	899.532927	-459.066083	257.028729	805.123017	-467.980623	268.309397	664.774086	-431.937461	242.554173	656.531606	-328.534089	207.598298	554.977659	-465.308424	201.100605	468.768271	-454.215933	152.049670	394.811938	-456.470738	229.527122	461.374635	-429.118006	124.257793	279.608329	-450.321493	147.727886	299.882709	-377.226116	56.033997	266.749607	-413.432174	316.425058	128.878614	-392.413117	212.840018	146.461983	-465.364113	-219.778416	911.110162	-275.482840	-53.422790	78.997286	-475.068565	-53.420835	79.174550	-77.467803	
1753	8.7650	725.496137	1291.471709	-147.600085	744.114593	1259.416826	-417.202540	727.653232	1349.638630	-296.545758	655.027680	1206.027226	-275.182045	560.234599	1098.779056	-2.025626	684.906967	919.299238	-89.242422	544.757735	1100.004010	-597.541212	679.934693	921.076114	-486.663081	130.328729	1238.177085	-337.092221	299.702656	1193.040575	-453.237762	256.804773	1273.690488	-183.787882	325.426029	1138.722728	-397.367361	285.173351	1199.656869	-190.990562	165.976100	1290.886807	-304.589548	184.582274	1269.884712	-387.198954	202.298089	1159.502598	-135.621537	205.465917	1104.861733	-467.409680	299.593849	1093.458792	-110.355944	384.526311	1067.428689	-97.272441	441.704638	1001.526746	-86.176649	404.415462	1094.830661	-113.066768	552.119375	903.673140	-97.340864	553.589305	893.112021	-205.972057	461.019778	849.281323	-78.260133	410.775006	777.160097	-91.114349	335.070828	738.704685	-99.116834	433.879619	755.101733	-112.091926	237.943503	643.977445	-111.946118	270.545592	656.313295	-187.976905	172.682452	677.758663	-157.923823	319.004397	421.866237	-164.426783	247.294117	491.349334	-95.350610	236.071487	974.556012	-480.159408	269.757915	896.251139	-473.418240	304.554210	900.399825	-459.743334	257.130322	806.412192	-468.728848	267.359829	665.430042	-433.023277	240.941093	657.493805	-329.479829	205.794935	556.390968	-466.780353	198.030760	470.311595	-455.728805	148.060471	397.017976	-458.596240	226.104023	462.526328	-430.350543	118.459669	281.981325	-452.491582	142.171492	302.125033	-378.196084	49.807438	271.302543	-415.862188	306.075236	126.557682	-391.550899	203.600059	146.208740	-465.653656	-219.851304	911.123135	-275.440810	-53.420838	79.002165	-475.076847	-53.427222	79.179772	-77.461364	
